<svg xmlns="http://www.w3.org/2000/svg" viewBox="0 0 512 512">
  <rect width="512" height="512" rx="112" fill="#0f766e"/>
  <rect x="100" y="120" width="312" height="400" rx="24" fill="white"/>
  <rect x="130" y="100" width="252" height="40" rx="8" fill="#0f766e"/>
  <rect x="140" y="180" width="232" height="12" rx="6" fill="#e2e8f0"/>
  <rect x="140" y="210" width="200" height="12" rx="6" fill="#e2e8f0"/>
  <rect x="140" y="240" width="216" height="12" rx="6" fill="#e2e8f0"/>
  <rect x="140" y="290" width="232" height="12" rx="6" fill="#ccfbf1"/>
  <rect x="120" y="288" width="12" height="16" rx="3" fill="#0f766e"/>
  <rect x="140" y="320" width="200" height="12" rx="6" fill="#ccfbf1"/>
  <rect x="120" y="318" width="12" height="16" rx="3" fill="#0f766e"/>
  <rect x="140" y="350" width="216" height="12" rx="6" fill="#ccfbf1"/>
  <rect x="120" y="348" width="12" height="16" rx="3" fill="#0f766e"/>
  <circle cx="380" cy="390" r="56" fill="#0f766e"/>
  <text x="380" y="403" text-anchor="middle" fill="white" font-size="52" font-family="sans-serif" font-weight="bold">+</text>
</svg>
